<svg xmlns="http://www.w3.org/2000/svg" viewBox="0 0 400 400">
  <defs>
    <linearGradient id="gradient" x1="0%" y1="0%" x2="0%" y2="100%">
      <stop offset="0%" stop-color="#517cfc"/>
      <stop offset="100%" stop-color="#1947a3"/>
    </linearGradient>
  </defs>
  <rect class="background" width="400" height="400" fill="url(#gradient)"/>
  <path class="cloud" fill="#f6f6f6" d="M178.6,92.3c30-6.4,62.8,6.7,80.4,31.7,11.7,15.8,16.3,35.9,14.8,55.4,19.7-1.8,40.3,7.2,50.4,24.5a50.4,50.4,0,0,1,6.1,38c-4.5,21.8-25,38.8-47.2,39.6-32.7.3-65.3-.3-98,0.3,1.4,19.7-13,38.5-32.1,43-10.4,1.8-21.6,1.1-30.9-4.5,14.9-5.8,23.5-23.7,17-38.7H125C95.4,280.8,68.7,254,70.3,224c-1.3-26.4,19.2-50.2,44.2-56.5C115,131.6,143.4,98.8,178.6,92.3Z"/>
</svg>
